<?xml version="1.0" encoding="utf-8"?>
<!-- Generator: Adobe Illustrator 18.0.0, SVG Export Plug-In . SVG Version: 6.00 Build 0)  -->
<!DOCTYPE svg PUBLIC "-//W3C//DTD SVG 1.1//EN" "http://www.w3.org/Graphics/SVG/1.1/DTD/svg11.dtd">
<svg version="1.1"
	 id="layer1" xmlns:svg="http://www.w3.org/2000/svg" xmlns:rdf="http://www.w3.org/1999/02/22-rdf-syntax-ns#" xmlns:sodipodi="http://sodipodi.sourceforge.net/DTD/sodipodi-0.dtd" xmlns:inkscape="http://www.inkscape.org/namespaces/inkscape" xmlns:dc="http://purl.org/dc/elements/1.1/" xmlns:cc="http://creativecommons.org/ns#" sodipodi:docname="Mute_Icon.svg" inkscape:version="0.48.3.1 r9886"
	 xmlns="http://www.w3.org/2000/svg" xmlns:xlink="http://www.w3.org/1999/xlink" x="0px" y="0px" viewBox="0 0 400 400"
	 enable-background="new 0 0 400 400" xml:space="preserve">
<sodipodi:namedview  inkscape:cy="171.8348" inkscape:cx="-282.4196" showgrid="false" id="namedview3005" guidetolerance="10" gridtolerance="10" bordercolor="#666666" pagecolor="#ffffff" inkscape:zoom="0.649" showguides="true" objecttolerance="10" borderopacity="1" inkscape:object-paths="false" inkscape:snap-smooth-nodes="false" inkscape:current-layer="g1" inkscape:window-maximized="1" inkscape:window-y="-8" inkscape:window-x="-8" inkscape:window-height="1028" inkscape:window-width="1920" inkscape:pageshadow="2" inkscape:guide-bbox="true" inkscape:pageopacity="0">
	<sodipodi:guide  position="42.491779,326.85984" orientation="0,1" id="guide3009"></sodipodi:guide>
	<sodipodi:guide  position="118.64407,164.86903" orientation="0,1" id="guide3011"></sodipodi:guide>
	<sodipodi:guide  position="324.34515,194.53005" orientation="1,0" id="guide3005"></sodipodi:guide>
	<sodipodi:guide  position="462.63482,170.64715" orientation="1,0" id="guide3007"></sodipodi:guide>
</sodipodi:namedview>
<g id="g1">
	<polygon id="polygon1" stroke="#111111" stroke-width="5" stroke-linejoin="round" points="210.1,73.4 118.6,152.6 32,152.6 
		32,254.4 117.3,254.4 210.1,334.7 	"/>
	
		<path id="path3003" sodipodi:nodetypes="cc" inkscape:connector-curvature="0" display="none" stroke="#111111" stroke-width="25" stroke-linecap="round" d="
		M259.5,268.1l110.6-129.6"/>
	
		<path id="path3003-1" sodipodi:nodetypes="cc" inkscape:connector-curvature="0" display="none" stroke="#111111" stroke-width="25" stroke-linecap="round" d="
		M370.1,268.1L259.5,138.5"/>
	<path stroke="#111111" stroke-width="25" stroke-linecap="round" d="M250.9,273.3l0.3,0.2c1.9,1.8,4.9,1.6,6.7-0.3l119.3-131.2
		c1.8-1.9,1.6-4.9-0.3-6.7l-0.3-0.2c-1.9-1.8-4.9-1.6-6.7,0.3L250.5,266.6C248.8,268.5,248.9,271.5,250.9,273.3z"/>
	<path stroke="#111111" stroke-width="25" stroke-linecap="round" d="M255.8,130.9l-0.3,0.2c-2,1.7-2.3,4.7-0.7,6.7L367.1,275
		c1.7,2,4.7,2.3,6.7,0.7l0.3-0.2c2-1.7,2.3-4.7,0.7-6.7L262.4,131.6C260.8,129.6,257.8,129.3,255.8,130.9z"/>
</g>
</svg>
